<?xml version="1.0" encoding="UTF-8"?>
<svg width="100px" height="100px" viewBox="0 0 100 100" version="1.1" xmlns="http://www.w3.org/2000/svg" xmlns:xlink="http://www.w3.org/1999/xlink">
    <!-- Generator: Sketch 51.3 (57544) - http://www.bohemiancoding.com/sketch -->
    <title>image-farmer</title>
    <desc>Created with Sketch.</desc>
    <defs></defs>
    <g id="Page-1" stroke="none" stroke-width="1" fill="none" fill-rule="evenodd">
        <g id="home" transform="translate(-148.000000, -990.000000)">
            <g id="Group-22" transform="translate(0.000000, 906.000000)">
                <g id="Group-7" transform="translate(128.000000, 64.000000)">
                    <g id="Group-15" transform="translate(20.000000, 20.000000)">
                        <rect id="Rectangle-9" x="0" y="0" width="100" height="100"></rect>
                        <g id="farmer" transform="translate(21.000000, 14.000000)" fill-rule="nonzero">
                            <path d="M42.79981,11.880171 C41.4868789,5.69056532 37.735696,1.47044181 36.0475439,0.626451306 C32.2493302,-1.27257007 30.9834299,1.75177197 29.2952779,1.75177197 C27.6071259,1.75177197 26.3412257,-1.27274109 22.5430119,0.626451306 C20.8550309,1.47044181 17.103677,5.69056532 15.7907458,11.880171 C14.4778147,18.0697767 29.2952779,13.0054917 29.2952779,13.0054917 C29.2952779,13.0054917 44.1127411,18.0697767 42.79981,11.880171 Z" id="Shape" fill="#FFD24F"></path>
                            <ellipse id="Oval" fill="#FFBE1E" cx="29.2952779" cy="20.8194584" rx="25.8835724" ry="9.56573872"></ellipse>
                            <path d="M14.0659952,27.7453112 C12.3790404,27.3232304 11.2739002,28.2250261 11.2739002,29.9961235 C11.2739002,32.3406556 13.5424988,38.0847506 15.9273919,34.4975772 C18.312285,30.9104038 14.0659952,27.7453112 14.0659952,27.7453112 Z" id="Shape" fill="#FFE1B2"></path>
                            <path d="M44.2380998,27.7453112 C46.0794869,27.3232304 47.2858717,28.2250261 47.2858717,29.9961235 C47.2858717,32.3406556 44.8096532,38.0847506 42.2063658,34.4975772 C39.6030784,30.9104038 44.2380998,27.7453112 44.2380998,27.7453112 Z" id="Shape" fill="#FFE1B2"></path>
                            <path d="M16.9316295,48.2087031 C19.44838,46.5882755 19.1668789,41.7654727 19.1668789,40.640152 L39.423677,40.640152 C39.423677,41.7654727 39.1115629,46.5882755 41.6281425,48.2087031 L29.2952779,62.0222708 L16.9316295,48.2087031 Z" id="Shape" fill="#FFD7A3"></path>
                            <path d="M37.1728646,53.0193634 L41.6281425,48.2087031 C39.1113919,46.5884466 39.423677,41.7654727 39.423677,40.640152 L19.1668789,40.640152 C20.6202185,44.8187173 30.2331591,51.9877625 37.1728646,53.0193634 Z" id="Shape" fill="#FDC88E"></path>
                            <path d="M55.1788504,71.9302233 C57.0434964,71.9302233 58.5549834,70.4187363 58.5549834,68.5540903 L58.5549834,61.8486841 C58.5549834,56.8969311 54.696399,51.6106603 49.9803135,50.1017387 L42.9397055,47.8488741 C39.151753,50.7452922 33.7384133,54.696399 29.2952779,54.696399 C24.8521425,54.696399 19.4388029,50.7452922 15.6508504,47.8488741 L8.61024228,50.1017387 C3.89415677,51.6106603 0.0355724466,56.8969311 0.0355724466,61.8486841 L0.0355724466,68.5540903 C0.0355724466,70.4187363 1.54705938,71.9302233 3.41170546,71.9302233 L55.1788504,71.9302233 Z" id="Shape" fill="#FF6953"></path>
                            <path d="M58.4816152,69.2503183 L56.7346318,69.2503183 L56.7346318,66.8842375 L58.5549834,66.8842375 L58.5549834,65.1613682 L56.7346318,65.1613682 L56.7346318,62.7952874 L58.5549834,62.7952874 L58.5549834,61.8485131 C58.5549834,61.5906128 58.5383943,61.3315154 58.5178717,61.0724181 L56.7346318,61.0724181 L56.7346318,58.7065083 L58.0579952,58.7065083 C57.879962,58.1221283 57.6583183,57.5461283 57.3937482,56.983639 L56.7346318,56.983639 L56.7346318,55.7495487 C56.1074964,54.7052922 55.3418337,53.7388504 54.4730451,52.8946888 L52.6458527,52.8946888 L52.6458527,51.408342 C51.8054537,50.8484181 50.9106698,50.3993159 49.9804846,50.1015677 L45.9305273,48.8055677 L44.4679525,48.8055677 L44.4679525,48.3374822 L42.9398765,47.8485321 C42.8765986,47.8969311 42.8093872,47.9477245 42.7450831,47.9966366 L42.7450831,48.8055677 L41.6734632,48.8055677 C40.728228,49.5112019 39.7127031,50.2412922 38.656133,50.9411116 L38.656133,52.8945178 L36.2900523,52.8945178 L36.2900523,52.3982138 C34.3051781,53.5158385 32.2678005,54.3714584 30.3614252,54.6172162 L30.4784038,54.6172162 L30.4784038,56.9832969 L28.112323,56.9832969 L28.112323,54.6172162 L28.2293017,54.6172162 C26.3227553,54.3714584 24.2853777,53.5156675 22.3005036,52.3980428 L22.3005036,52.8943468 L19.9344228,52.8943468 L19.9344228,50.9409406 C18.8778527,50.2411211 17.8623278,49.5110309 16.9170926,48.8053967 L15.8454727,48.8053967 L15.8454727,47.9964656 C15.7813397,47.9475534 15.7139572,47.8967601 15.6506793,47.848361 L14.1226033,48.3373112 L14.1226033,48.8053967 L12.6600285,48.8053967 L8.61007126,50.1013967 C7.67988599,50.3989739 6.78510214,50.848076 5.94470309,51.408171 L5.94470309,52.8945178 L4.11768171,52.8945178 C3.24889311,53.7386793 2.4832304,54.7049501 1.85609501,55.7493777 L1.85609501,56.9834679 L1.19697862,56.9834679 C0.932579572,57.5459572 0.710935867,58.1217862 0.532731591,58.7063373 L1.85609501,58.7063373 L1.85609501,61.0724181 L0.0726840855,61.0724181 C0.0521615202,61.3315154 0.0355724466,61.5906128 0.0355724466,61.8485131 L0.0355724466,62.7952874 L1.85592399,62.7952874 L1.85592399,65.1613682 L0.0355724466,65.1613682 L0.0355724466,66.8842375 L1.85592399,66.8842375 L1.85592399,69.2503183 L0.109111639,69.2503183 C0.249691211,69.919867 0.589852732,70.5138242 1.06289786,70.9731876 L1.85592399,70.9731876 L1.85592399,71.5337957 C2.32349644,71.7785273 2.84733492,71.9302233 3.41170546,71.9302233 L3.57896437,71.9302233 L3.57896437,70.9731876 L5.94504513,70.9731876 L5.94504513,71.9302233 L7.66808551,71.9302233 L7.66808551,70.9731876 L10.0338242,70.9731876 L10.0338242,71.9302233 L11.7566936,71.9302233 L11.7566936,70.9731876 L14.1227743,70.9731876 L14.1227743,71.9302233 L15.8456437,71.9302233 L15.8456437,70.9731876 L18.2117245,70.9731876 L18.2117245,71.9302233 L19.9345938,71.9302233 L19.9345938,70.9731876 L22.3006746,70.9731876 L22.3006746,71.9302233 L24.023715,71.9302233 L24.023715,70.9731876 L26.3897957,70.9731876 L26.3897957,71.9302233 L28.1126651,71.9302233 L28.1126651,70.9731876 L30.4787458,70.9731876 L30.4787458,71.9302233 L32.2016152,71.9302233 L32.2016152,70.9731876 L34.567696,70.9731876 L34.567696,71.9302233 L36.2905653,71.9302233 L36.2905653,70.9731876 L38.6566461,70.9731876 L38.6566461,71.9302233 L40.3795154,71.9302233 L40.3795154,70.9731876 L42.7455962,70.9731876 L42.7455962,71.9302233 L44.4684656,71.9302233 L44.4684656,70.9731876 L46.8345463,70.9731876 L46.8345463,71.9302233 L48.5574157,71.9302233 L48.5574157,70.9731876 L50.9234964,70.9731876 L50.9234964,71.9302233 L52.6465368,71.9302233 L52.6465368,70.9731876 L55.0126176,70.9731876 L55.0126176,71.9302233 L55.1798765,71.9302233 C55.744247,71.9302233 56.2680855,71.7785273 56.735658,71.5337957 L56.735658,70.9731876 L57.5286841,70.9731876 C58.0007031,70.5138242 58.3410356,69.919867 58.4816152,69.2503183 Z M5.94487411,69.2503183 L3.57879335,69.2503183 L3.57879335,66.8842375 L5.94487411,66.8842375 L5.94487411,69.2503183 Z M5.94487411,65.1615392 L3.57879335,65.1615392 L3.57879335,62.7954584 L5.94487411,62.7954584 L5.94487411,65.1615392 Z M5.94487411,61.0725891 L3.57879335,61.0725891 L3.57879335,58.7065083 L5.94487411,58.7065083 L5.94487411,61.0725891 Z M5.94487411,56.983639 L3.57879335,56.983639 L3.57879335,54.6175582 L5.94487411,54.6175582 L5.94487411,56.983639 Z M10.0338242,69.2503183 L7.66774347,69.2503183 L7.66774347,66.8842375 L10.0338242,66.8842375 L10.0338242,69.2503183 Z M10.0338242,65.1615392 L7.66774347,65.1615392 L7.66774347,62.7954584 L10.0338242,62.7954584 L10.0338242,65.1615392 Z M10.0338242,61.0725891 L7.66774347,61.0725891 L7.66774347,58.7065083 L10.0338242,58.7065083 L10.0338242,61.0725891 Z M10.0338242,56.983639 L7.66774347,56.983639 L7.66774347,54.6175582 L10.0338242,54.6175582 L10.0338242,56.983639 Z M10.0338242,52.8946888 L7.66774347,52.8946888 L7.66774347,50.5286081 L10.0338242,50.5286081 L10.0338242,52.8946888 Z M14.1227743,69.2503183 L11.7566936,69.2503183 L11.7566936,66.8842375 L14.1227743,66.8842375 L14.1227743,69.2503183 Z M14.1227743,65.1615392 L11.7566936,65.1615392 L11.7566936,62.7954584 L14.1227743,62.7954584 L14.1227743,65.1615392 Z M14.1227743,61.0725891 L11.7566936,61.0725891 L11.7566936,58.7065083 L14.1227743,58.7065083 L14.1227743,61.0725891 Z M14.1227743,56.983639 L11.7566936,56.983639 L11.7566936,54.6175582 L14.1227743,54.6175582 L14.1227743,56.983639 Z M14.1227743,52.8946888 L11.7566936,52.8946888 L11.7566936,50.5286081 L14.1227743,50.5286081 L14.1227743,52.8946888 Z M18.2115534,69.2503183 L15.8454727,69.2503183 L15.8454727,66.8842375 L18.2115534,66.8842375 L18.2115534,69.2503183 Z M18.2115534,65.1615392 L15.8454727,65.1615392 L15.8454727,62.7954584 L18.2115534,62.7954584 L18.2115534,65.1615392 Z M18.2115534,61.0725891 L15.8454727,61.0725891 L15.8454727,58.7065083 L18.2115534,58.7065083 L18.2115534,61.0725891 Z M18.2115534,56.983639 L15.8454727,56.983639 L15.8454727,54.6175582 L18.2115534,54.6175582 L18.2115534,56.983639 Z M18.2115534,52.8946888 L15.8454727,52.8946888 L15.8454727,50.5286081 L18.2115534,50.5286081 L18.2115534,52.8946888 Z M22.3005036,69.2503183 L19.9344228,69.2503183 L19.9344228,66.8842375 L22.3005036,66.8842375 L22.3005036,69.2503183 Z M22.3005036,65.1615392 L19.9344228,65.1615392 L19.9344228,62.7954584 L22.3005036,62.7954584 L22.3005036,65.1615392 Z M22.3005036,61.0725891 L19.9344228,61.0725891 L19.9344228,58.7065083 L22.3005036,58.7065083 L22.3005036,61.0725891 Z M22.3005036,56.983639 L19.9344228,56.983639 L19.9344228,54.6175582 L22.3005036,54.6175582 L22.3005036,56.983639 Z M26.3894537,69.2503183 L24.0233729,69.2503183 L24.0233729,66.8842375 L26.3894537,66.8842375 L26.3894537,69.2503183 Z M26.3894537,65.1615392 L24.0233729,65.1615392 L24.0233729,62.7954584 L26.3894537,62.7954584 L26.3894537,65.1615392 Z M26.3894537,61.0725891 L24.0233729,61.0725891 L24.0233729,58.7065083 L26.3894537,58.7065083 L26.3894537,61.0725891 Z M26.3894537,56.983639 L24.0233729,56.983639 L24.0233729,54.6175582 L26.3894537,54.6175582 L26.3894537,56.983639 Z M30.4782328,69.2503183 L28.112152,69.2503183 L28.112152,66.8842375 L30.4782328,66.8842375 L30.4782328,69.2503183 Z M30.4782328,65.1615392 L28.112152,65.1615392 L28.112152,62.7954584 L30.4782328,62.7954584 L30.4782328,65.1615392 Z M30.4782328,61.0725891 L28.112152,61.0725891 L28.112152,58.7065083 L30.4782328,58.7065083 L30.4782328,61.0725891 Z M34.5671829,69.2503183 L32.2011021,69.2503183 L32.2011021,66.8842375 L34.5671829,66.8842375 L34.5671829,69.2503183 Z M34.5671829,65.1615392 L32.2011021,65.1615392 L32.2011021,62.7954584 L34.5671829,62.7954584 L34.5671829,65.1615392 Z M34.5671829,61.0725891 L32.2011021,61.0725891 L32.2011021,58.7065083 L34.5671829,58.7065083 L34.5671829,61.0725891 Z M34.5671829,56.983639 L32.2011021,56.983639 L32.2011021,54.6175582 L34.5671829,54.6175582 L34.5671829,56.983639 Z M38.656133,69.2503183 L36.2900523,69.2503183 L36.2900523,66.8842375 L38.656133,66.8842375 L38.656133,69.2503183 Z M38.656133,65.1615392 L36.2900523,65.1615392 L36.2900523,62.7954584 L38.656133,62.7954584 L38.656133,65.1615392 Z M38.656133,61.0725891 L36.2900523,61.0725891 L36.2900523,58.7065083 L38.656133,58.7065083 L38.656133,61.0725891 Z M38.656133,56.983639 L36.2900523,56.983639 L36.2900523,54.6175582 L38.656133,54.6175582 L38.656133,56.983639 Z M42.7450831,69.2503183 L40.3790024,69.2503183 L40.3790024,66.8842375 L42.7450831,66.8842375 L42.7450831,69.2503183 Z M42.7450831,65.1615392 L40.3790024,65.1615392 L40.3790024,62.7954584 L42.7450831,62.7954584 L42.7450831,65.1615392 Z M42.7450831,61.0725891 L40.3790024,61.0725891 L40.3790024,58.7065083 L42.7450831,58.7065083 L42.7450831,61.0725891 Z M42.7450831,56.983639 L40.3790024,56.983639 L40.3790024,54.6175582 L42.7450831,54.6175582 L42.7450831,56.983639 Z M42.7450831,52.8946888 L40.3790024,52.8946888 L40.3790024,50.5286081 L42.7450831,50.5286081 L42.7450831,52.8946888 Z M46.8338622,69.2503183 L44.4677815,69.2503183 L44.4677815,66.8842375 L46.8338622,66.8842375 L46.8338622,69.2503183 Z M46.8338622,65.1615392 L44.4677815,65.1615392 L44.4677815,62.7954584 L46.8338622,62.7954584 L46.8338622,65.1615392 Z M46.8338622,61.0725891 L44.4677815,61.0725891 L44.4677815,58.7065083 L46.8338622,58.7065083 L46.8338622,61.0725891 Z M46.8338622,56.983639 L44.4677815,56.983639 L44.4677815,54.6175582 L46.8338622,54.6175582 L46.8338622,56.983639 Z M46.8338622,52.8946888 L44.4677815,52.8946888 L44.4677815,50.5286081 L46.8338622,50.5286081 L46.8338622,52.8946888 Z M50.9228124,69.2503183 L48.5567316,69.2503183 L48.5567316,66.8842375 L50.9228124,66.8842375 L50.9228124,69.2503183 Z M50.9228124,65.1615392 L48.5567316,65.1615392 L48.5567316,62.7954584 L50.9228124,62.7954584 L50.9228124,65.1615392 Z M50.9228124,61.0725891 L48.5567316,61.0725891 L48.5567316,58.7065083 L50.9228124,58.7065083 L50.9228124,61.0725891 Z M50.9228124,56.983639 L48.5567316,56.983639 L48.5567316,54.6175582 L50.9228124,54.6175582 L50.9228124,56.983639 Z M50.9228124,52.8946888 L48.5567316,52.8946888 L48.5567316,50.5286081 L50.9228124,50.5286081 L50.9228124,52.8946888 Z M55.0117625,69.2503183 L52.6456817,69.2503183 L52.6456817,66.8842375 L55.0117625,66.8842375 L55.0117625,69.2503183 Z M55.0117625,65.1615392 L52.6456817,65.1615392 L52.6456817,62.7954584 L55.0117625,62.7954584 L55.0117625,65.1615392 Z M55.0117625,61.0725891 L52.6456817,61.0725891 L52.6456817,58.7065083 L55.0117625,58.7065083 L55.0117625,61.0725891 Z M55.0117625,56.983639 L52.6456817,56.983639 L52.6456817,54.6175582 L55.0117625,54.6175582 L55.0117625,56.983639 Z" id="Shape" fill="#E95F43"></path>
                            <path d="M29.2952779,54.696228 L24.599715,59.391791 C24.1107648,59.8807411 23.3006366,59.8171211 22.8937767,59.2578812 L14.6654252,47.943791 L17.2864988,45.3227173 C17.7097767,44.8994394 18.3902708,44.8816532 18.8350974,45.2820143 L29.2952779,54.696228 Z" id="Shape" fill="#FFBE1E"></path>
                            <path d="M29.2952779,54.696228 L33.9908409,59.391791 C34.479791,59.8807411 35.2899192,59.8171211 35.6967791,59.2578812 L43.9251306,47.943791 L41.304057,45.3227173 C40.8807791,44.8994394 40.200285,44.8816532 39.7554584,45.2820143 L29.2952779,54.696228 Z" id="Shape" fill="#FFBE1E"></path>
                            <path d="M14.2418052,20.1355439 C13.9786033,21.7275819 13.9642375,23.6418242 13.9642375,25.9165796 C13.9642375,34.9287221 19.0138147,46.1733777 29.2954489,46.1733777 C39.5770831,46.1733777 44.6266603,34.9287221 44.6266603,25.9165796 C44.6266603,23.6416532 44.6122945,21.7275819 44.3490926,20.1355439 C40.2245701,18.7456532 34.9928551,17.912266 29.29562,17.912266 C23.5983848,17.912266 18.3661568,18.7454822 14.2418052,20.1355439 Z" id="Shape" fill="#FFE1B2"></path>
                            <path d="M44.6841235,21.9560665 C43.7833539,20.800133 42.8172542,19.6123895 42.8172542,19.6123895 L42.8172542,20.7377102 C43.096361,30.936399 39.4672874,35.3675629 39.4672874,35.3675629 L34.8432114,35.8852447 C31.2370546,36.2890261 27.5977197,36.2890261 23.9915629,35.8852447 L19.3674869,35.3675629 C19.3674869,35.3675629 15.7384133,30.936399 16.0175202,20.7377102 L16.0175202,19.6123895 C16.0175202,19.6123895 15.0514204,20.799962 14.1506508,21.9560665 C13.9160095,22.959791 13.5399335,24.0510784 13.5399335,25.2489121 C13.5399335,34.2610546 18.9332637,47.2544038 29.4173872,47.2544038 C39.9015107,47.2544038 45.0504513,34.2610546 45.0504513,25.2489121 C45.0506223,24.0510784 44.9189359,22.959791 44.6841235,21.9560665 Z M26.0674204,38.0404561 L32.7673539,38.0404561 C33.6859097,38.0404561 34.4734632,38.600209 34.8165321,39.3990499 C33.5795344,39.9415297 31.6808551,40.2910974 29.5406936,40.2910974 C27.2809881,40.2910974 25.2949169,39.9004846 24.0688646,39.3051591 C24.4324561,38.5588219 25.1866603,38.0404561 26.0674204,38.0404561 Z" id="Shape" fill="#A7795E"></path>
                            <path d="M29.8931686,37.0392969 C29.8931686,35.5532922 28.4512874,35.2168931 27.5017767,35.5770641 C25.7609501,36.2373777 23.8443135,38.0794489 22.2266223,36.9402755 C22.2266223,36.9402755 22.7892827,39.3179857 23.7386223,39.3179857 C25.6376437,39.3178147 29.8931686,39.5656247 29.8931686,37.0392969 Z" id="Shape" fill="#543D38"></path>
                            <path d="M29.4380808,37.0392969 C29.4380808,35.5532922 30.879962,35.2168931 31.8294727,35.5770641 C33.5702993,36.2373777 35.4869359,38.0794489 37.1046271,36.9402755 C37.1046271,36.9402755 36.5419667,39.3179857 35.5926271,39.3179857 C33.6936057,39.3178147 29.4380808,39.5656247 29.4380808,37.0392969 Z" id="Shape" fill="#543D38"></path>
                            <path d="M48.4267553,49.4578432 L43.9253017,48.0173302 L43.9253017,61.8647601 C43.9253017,62.3798765 43.5834299,62.8353064 43.0833634,62.9584418 C39.2738622,63.8966651 34.4953539,64.4582993 29.2954489,64.4582993 C24.0955439,64.4582993 19.3170356,63.8966651 15.5075344,62.9584418 C15.0072969,62.8353064 14.6655962,62.3798765 14.6655962,61.8647601 L14.6655962,48.0173302 L10.1641425,49.4578432 L10.1641425,71.9302233 L48.4269264,71.9302233 L48.4269264,49.4578432 L48.4267553,49.4578432 Z" id="Shape" fill="#C55F54"></path>
                            <path d="M13.6155249,27.8908504 L16.6544038,28.4511164 C16.6544038,28.4511164 17.8411211,21.7963325 18.4773207,19.031601 C16.8175582,19.3628694 15.2521995,19.7613492 13.8251971,20.2292637 C13.5546413,21.8213017 13.5399335,23.7355439 13.5399335,26.0102993 C13.5401045,26.6280285 13.5667838,27.2567031 13.6155249,27.8908504 Z" id="Shape" fill="#543D38"></path>
                            <path d="M44.9750309,27.8908504 L41.936152,28.4511164 C41.936152,28.4511164 40.7494347,21.7963325 40.1132352,19.031601 C41.7729976,19.3628694 43.3383563,19.7613492 44.7653587,20.2292637 C45.0359145,21.8213017 45.0506223,23.7355439 45.0506223,26.0102993 C45.0506223,26.6280285 45.023772,27.2567031 44.9750309,27.8908504 Z" id="Shape" fill="#543D38"></path>
                            <path d="M35.9069644,21.7807696 L38.6072209,18.7070024 C35.7405606,18.200095 32.6007791,17.912266 29.2952779,17.912266 C27.2835534,17.912266 25.3344228,18.0212067 23.4670404,18.2168551 C25.232323,18.096114 32.1790404,19.031601 35.9069644,21.7807696 Z" id="Shape" fill="#543D38"></path>
                        </g>
                    </g>
                </g>
            </g>
        </g>
    </g>
</svg>